<?xml version="1.0" encoding="utf-8"?>
<!-- Generator: Adobe Illustrator 23.0.2, SVG Export Plug-In . SVG Version: 6.00 Build 0)  -->
<svg version="1.1" id="Layer_1" xmlns="http://www.w3.org/2000/svg" xmlns:xlink="http://www.w3.org/1999/xlink" x="0px" y="0px"
	 viewBox="0 0 449.3 449.3" style="enable-background:new 0 0 449.3 449.3;" xml:space="preserve">
<style type="text/css">
	.st0{clip-path:url(#SVGID_2_);fill:#FFBB4C;}
	.st1{clip-path:url(#SVGID_2_);fill:#FFF4A9;}
	.st2{clip-path:url(#SVGID_2_);fill:#FFDB71;}
</style>
<g>
	<defs>
		<circle id="SVGID_1_" cx="225.5" cy="224.9" r="222.5"/>
	</defs>
	<clipPath id="SVGID_2_">
		<use xlink:href="#SVGID_1_"  style="overflow:visible;"/>
	</clipPath>
	<path class="st0" d="M397.8-17.3c101.7-13.6,205.9,35.4,257.8,131.2c67.1,123.7,21.7,277.4-101.8,344.9
		c-95.2,52-209,36.9-287.1-29.4c-37.4-31.7-82.8-52.3-131.1-61.2C62.6,354.8-4,309.6-42.2,239.1C-109.2,115.4-63.8-38.3,59.7-105.8
		C178.7-170.8,326.9-131,397.8-17.3z"/>
	<path class="st1" d="M-32,312.3c-45.6-22.9-80.7-66-91.1-120.9C-139.5,105.5-86.3,19.6-2.2-4.3c73.4-20.8,148.6,9.5,188.5,69
		c17.5,26.1,42.9,45.5,71.5,58.7c48.2,22.2,85.6,66.5,96.4,123.5c16.3,85.9-36.8,171.8-121,195.7c-71.4,20.3-144.5-7.9-185.2-64.2
		C27.6,349.9-0.7,328.1-32,312.3z"/>
	<path class="st2" d="M273.3,280.2c63,13.4,119.6,54.7,149.9,118.3c47.5,99.6,10.1,221.5-84.9,277.6
		c-82.9,48.9-184.3,35.9-252.1-23.9c-29.7-26.3-66.9-41.8-106-48.7c-65.9-11.6-125.7-53.7-157.2-119.8
		c-47.5-99.6-10.1-221.5,84.9-277.6c80.7-47.6,178.8-36.6,246.5,19.1C188.6,253.4,230,271,273.3,280.2z"/>
</g>
</svg>
