<?xml version="1.0" encoding="utf-8"?>
<!-- Generator: Adobe Illustrator 23.0.2, SVG Export Plug-In . SVG Version: 6.00 Build 0)  -->
<svg version="1.1" id="Layer_1" xmlns="http://www.w3.org/2000/svg" xmlns:xlink="http://www.w3.org/1999/xlink" x="0px" y="0px"
	 viewBox="0 0 230.6 216.1" style="enable-background:new 0 0 230.6 216.1;" xml:space="preserve">
<style type="text/css">
	.st0{fill:none;stroke:#231F20;stroke-width:16;stroke-linejoin:round;stroke-miterlimit:10;}
</style>
<g>
	<path class="st0" d="M200.9,34.5h-26.7c-4.9,0-9.3-2.7-11.7-6.9l-4.9-9c-2.3-4.3-6.8-6.9-11.7-6.9H84.8c-4.9,0-9.3,2.7-11.7,6.9
		l-4.9,9c-2.3,4.3-6.8,6.9-11.7,6.9H30c-10.4,0-18.8,8.4-18.8,18.8V184c0,10.4,8.4,18.8,18.8,18.8h170.9c10.4,0,18.8-8.4,18.8-18.8
		V53.2C219.6,42.9,211.2,34.5,200.9,34.5z"/>
	<circle class="st0" cx="115.4" cy="120" r="51.8"/>
</g>
</svg>
