<?xml version="1.0" encoding="utf-8"?>
<!-- Generator: Adobe Illustrator 23.0.2, SVG Export Plug-In . SVG Version: 6.00 Build 0)  -->
<svg version="1.1" id="Layer_1" xmlns="http://www.w3.org/2000/svg" xmlns:xlink="http://www.w3.org/1999/xlink" x="0px" y="0px"
	 viewBox="0 0 582.3 137.9" style="enable-background:new 0 0 582.3 137.9;" xml:space="preserve">
<style type="text/css">
	.st0{fill:url(#SVGID_1_);}
	.st1{fill:url(#SVGID_2_);}
	.st2{fill:url(#SVGID_3_);}
	.st3{fill:url(#SVGID_4_);}
	.st4{fill:url(#SVGID_5_);}
	.st5{fill:url(#SVGID_6_);}
	.st6{fill:url(#SVGID_7_);}
	.st7{fill:url(#SVGID_8_);}
	.st8{fill:url(#SVGID_9_);}
</style>
<g>
	<g>
		<linearGradient id="SVGID_1_" gradientUnits="userSpaceOnUse" x1="175.9459" y1="11.4501" x2="199.1497" y2="396.8356">
			<stop  offset="0" style="stop-color:#FFFFFF"/>
			<stop  offset="0.1006" style="stop-color:#FFFEF7"/>
			<stop  offset="0.2527" style="stop-color:#FEFDE3"/>
			<stop  offset="0.4375" style="stop-color:#FDFAC1"/>
			<stop  offset="0.6479" style="stop-color:#FCF591"/>
			<stop  offset="0.8768" style="stop-color:#FAF055"/>
			<stop  offset="1" style="stop-color:#F9ED32"/>
		</linearGradient>
		<path class="st0" d="M146.9,99.9V13.8c0-3.9,3.2-7.1,7.1-7.1h22.8c23.3,0,35.1,9.9,35.1,31.9c0,21.3-12.7,32.6-34.5,32.6h0
			c-3.9,0-7.1,3.2-7.1,7.1v21.7c0,3.9-3.2,7.1-7.1,7.1H154C150.1,107.1,146.9,103.9,146.9,99.9z M178.1,51.4c5.2,0,9.8-3.2,9.8-12.9
			c0-8.4-4.2-11.6-9.9-11.6h-0.6c-3.9,0-7.1,3.2-7.1,7.1v10.2c0,3.9,3.2,7.1,7.1,7.1H178.1z"/>
		<linearGradient id="SVGID_2_" gradientUnits="userSpaceOnUse" x1="236.5017" y1="7.4972" x2="259.8432" y2="395.1687">
			<stop  offset="0" style="stop-color:#FFFFFF"/>
			<stop  offset="0.1006" style="stop-color:#FFFEF7"/>
			<stop  offset="0.2527" style="stop-color:#FEFDE3"/>
			<stop  offset="0.4375" style="stop-color:#FDFAC1"/>
			<stop  offset="0.6479" style="stop-color:#FCF591"/>
			<stop  offset="0.8768" style="stop-color:#FAF055"/>
			<stop  offset="1" style="stop-color:#F9ED32"/>
		</linearGradient>
		<path class="st1" d="M248.9,104.8L248.9,104.8c-0.3-2-2.7-3-4.3-1.7c-4.3,3.2-9.2,5.2-15.3,5.2c-9.5,0-15.9-6.9-15.9-19.4
			c0-8.9,3.2-14.8,9.2-19.4c5.3-4.1,12.7-6.7,23-9.9c1.1-0.3,1.8-1.3,1.9-2.4c0.3-5.4-1-8.3-6-8.3c-3.9,0-6.4,2.2-7.9,5.6
			c-0.5,1.3-1.9,2-3.3,1.6l-11.3-3.3c-1.5-0.4-2.4-2-1.8-3.5c3.6-10,11.5-16.3,26-16.3c16.6,0,24.5,7.3,24.5,24.5v33.6
			c0,0.1,0,0.2,0,0.2l1.1,13c0.1,1.6-1.1,3-2.7,3h-14.4C250.2,107.1,249.1,106.1,248.9,104.8z M242.8,73.4c-2.2,0.9-3.7,1.8-5.2,3
			c-0.1,0.1-0.2,0.2-0.3,0.3c-1.8,2-2.6,4.8-2.6,8.2c0,4.2,1.8,7,4.6,7c2.6,0,4.8-1.3,6.6-3.4c0.4-0.5,0.7-1.2,0.7-1.8V76
			C246.6,74,244.6,72.7,242.8,73.4z"/>
		<linearGradient id="SVGID_3_" gradientUnits="userSpaceOnUse" x1="300.6298" y1="3.5772" x2="324.025" y2="392.1399">
			<stop  offset="0" style="stop-color:#FFFFFF"/>
			<stop  offset="0.1006" style="stop-color:#FFFEF7"/>
			<stop  offset="0.2527" style="stop-color:#FEFDE3"/>
			<stop  offset="0.4375" style="stop-color:#FDFAC1"/>
			<stop  offset="0.6479" style="stop-color:#FCF591"/>
			<stop  offset="0.8768" style="stop-color:#FAF055"/>
			<stop  offset="1" style="stop-color:#F9ED32"/>
		</linearGradient>
		<path class="st2" d="M302.7,85.2c-1.9,0-3.7-0.1-5.4-0.3c-1.8-0.2-3.4,1.1-3.4,2.9c0,0,0,0,0,0c0,7.7,41.5-3.6,41.5,23.1
			c0,14.3-12.9,21.4-33.6,21.4c-14.8,0-27.8-3.5-27.8-13.7c0-6,3.5-9.9,10.6-12.4v-0.3c-6.3-1.5-8.1-5.3-8.1-10.1
			c0-5.1,2-9.4,6.1-13.5c1.1-1.2,1.2-3,0.1-4.2c-4-4.4-5.9-10.9-5.9-19c0-15.4,8.1-26.3,25.9-26.3c7,0,12.6,1.8,16.7,4.8
			c1.2,0.9,3,0.8,4-0.4c2.4-2.5,5.5-4.5,9-5.3c1.9-0.5,3.7,1,3.7,3v11.7c0,1.6-1.2,2.8-2.7,3c-1,0.1-2,0.3-2.9,0.4
			c-1.6,0.3-2.7,1.8-2.4,3.5c0.3,1.8,0.5,3.6,0.5,5.5C328.5,75.7,320.7,85.2,302.7,85.2z M299.6,108.9c-0.3,0-0.5,0-0.8,0.1
			c-3.7,0.9-6.5,2.8-6.5,5.5c0,3.1,4.3,4.8,11.2,4.8c7,0,11.9-1.7,11.9-5C315.4,110.3,308.6,109.1,299.6,108.9z M302.7,47.8
			c-4.5,0-6.4,2.9-6.4,11.7c0,9.5,1.8,12,6.4,12c4.6,0,6.4-2.5,6.4-12C309.1,50.7,307.1,47.8,302.7,47.8z"/>
		<linearGradient id="SVGID_4_" gradientUnits="userSpaceOnUse" x1="366.6717" y1="-0.1416" x2="389.9822" y2="387.0156">
			<stop  offset="0" style="stop-color:#FFFFFF"/>
			<stop  offset="0.1006" style="stop-color:#FFFEF7"/>
			<stop  offset="0.2527" style="stop-color:#FEFDE3"/>
			<stop  offset="0.4375" style="stop-color:#FDFAC1"/>
			<stop  offset="0.6479" style="stop-color:#FCF591"/>
			<stop  offset="0.8768" style="stop-color:#FAF055"/>
			<stop  offset="1" style="stop-color:#F9ED32"/>
		</linearGradient>
		<path class="st3" d="M377.7,104.7L377.7,104.7c0-2-2.3-3.1-3.8-1.8c-4.5,3.7-9,5.5-14.7,5.5c-6.7,0-11.3-2.8-13.6-7.8
			c-1.8-4.1-2.2-8.9-2.2-17.8V36.4c0-1.3,1.1-2.4,2.4-2.4h16.7c1.3,0,2.4,1.1,2.4,2.4v44.1c0,6.6,1.4,8.9,5,8.9
			c1.9,0,4.1-0.9,6.3-3.1c0.4-0.5,0.7-1.1,0.7-1.7V36.4c0-1.3,1.1-2.4,2.4-2.4h16.1c1.3,0,2.4,1.1,2.4,2.4v68.3
			c0,1.3-1.1,2.4-2.4,2.4H380C378.7,107.1,377.7,106,377.7,104.7z"/>
		<linearGradient id="SVGID_5_" gradientUnits="userSpaceOnUse" x1="424.4473" y1="-3.5716" x2="447.7458" y2="383.3874">
			<stop  offset="0" style="stop-color:#FFFFFF"/>
			<stop  offset="0.1006" style="stop-color:#FFFEF7"/>
			<stop  offset="0.2527" style="stop-color:#FEFDE3"/>
			<stop  offset="0.4375" style="stop-color:#FDFAC1"/>
			<stop  offset="0.6479" style="stop-color:#FCF591"/>
			<stop  offset="0.8768" style="stop-color:#FAF055"/>
			<stop  offset="1" style="stop-color:#F9ED32"/>
		</linearGradient>
		<path class="st4" d="M409.7,104.4V36.7c0-1.4,1.2-2.6,2.6-2.6h14.6c1.4,0,2.6,1.2,2.6,2.6v0c0,2.5,3.1,3.6,4.7,1.7
			c2.9-3.5,6.4-5.5,11.1-5.5c0,0,0,0,0,0c1.4,0,2.6,1.2,2.6,2.6v14.9c0,1.5-1.3,2.7-2.8,2.6c-0.2,0-0.3,0-0.5,0
			c-5.3,0-9.8,2.2-13.8,8.4c-0.3,0.4-0.4,0.9-0.4,1.4v41.6c0,1.4-1.2,2.6-2.6,2.6h-15.6C410.9,107.1,409.7,105.9,409.7,104.4z"/>
		<linearGradient id="SVGID_6_" gradientUnits="userSpaceOnUse" x1="478.3266" y1="-6.8399" x2="501.6371" y2="380.3173">
			<stop  offset="0" style="stop-color:#FFFFFF"/>
			<stop  offset="0.1006" style="stop-color:#FFFEF7"/>
			<stop  offset="0.2527" style="stop-color:#FEFDE3"/>
			<stop  offset="0.4375" style="stop-color:#FDFAC1"/>
			<stop  offset="0.6479" style="stop-color:#FCF591"/>
			<stop  offset="0.8768" style="stop-color:#FAF055"/>
			<stop  offset="1" style="stop-color:#F9ED32"/>
		</linearGradient>
		<path class="st5" d="M489.7,104.7L489.7,104.7c0-2-2.3-3.1-3.8-1.8c-4.5,3.7-9,5.5-14.7,5.5c-6.7,0-11.3-2.8-13.6-7.8
			c-1.8-4.1-2.2-8.9-2.2-17.8V36.4c0-1.3,1.1-2.4,2.4-2.4h16.7c1.3,0,2.4,1.1,2.4,2.4v44.1c0,6.6,1.4,8.9,5,8.9
			c1.9,0,4.1-0.9,6.3-3.1c0.4-0.5,0.7-1.1,0.7-1.7V36.4c0-1.3,1.1-2.4,2.4-2.4h16.1c1.3,0,2.4,1.1,2.4,2.4v68.3
			c0,1.3-1.1,2.4-2.4,2.4h-15.1C490.8,107.1,489.7,106,489.7,104.7z"/>
		<linearGradient id="SVGID_7_" gradientUnits="userSpaceOnUse" x1="538.9193" y1="-10.7701" x2="562.3144" y2="377.7926">
			<stop  offset="0" style="stop-color:#FFFFFF"/>
			<stop  offset="0.1006" style="stop-color:#FFFEF7"/>
			<stop  offset="0.2527" style="stop-color:#FEFDE3"/>
			<stop  offset="0.4375" style="stop-color:#FDFAC1"/>
			<stop  offset="0.6479" style="stop-color:#FCF591"/>
			<stop  offset="0.8768" style="stop-color:#FAF055"/>
			<stop  offset="1" style="stop-color:#F9ED32"/>
		</linearGradient>
		<path class="st6" d="M558.2,53.1c-3.2,0.9-6.6-0.2-8.8-2.7c-1.5-1.7-3.3-2.3-5.6-2.3c-3.4,0-5.2,1.8-5.2,4.5
			c0,10.3,30.6,9.1,30.6,33.8c0,14.3-9.8,22-25.9,22c-10.5,0-16.9-2.7-21.3-8.9c-3.2-4.7-1-11.2,4.4-12.8l0.5-0.2
			c3.5-1.1,7.3,0.3,9.4,3.3c1.6,2.3,3.7,3.4,6.9,3.4c3.5,0,5.7-1.5,5.7-4.8c0-12-29.8-10.2-29.8-34.5c0-12.7,9.2-21,23.9-21
			c9,0,14.9,2.1,18.9,6.7C566.3,44.1,564.1,51.4,558.2,53.1L558.2,53.1z"/>
	</g>
	<linearGradient id="SVGID_8_" gradientUnits="userSpaceOnUse" x1="65.6049" y1="21.2029" x2="88.02" y2="393.4885">
		<stop  offset="0" style="stop-color:#FFFFFF"/>
		<stop  offset="0.1006" style="stop-color:#FFFEF7"/>
		<stop  offset="0.2527" style="stop-color:#FEFDE3"/>
		<stop  offset="0.4375" style="stop-color:#FDFAC1"/>
		<stop  offset="0.6479" style="stop-color:#FCF591"/>
		<stop  offset="0.8768" style="stop-color:#FAF055"/>
		<stop  offset="1" style="stop-color:#F9ED32"/>
	</linearGradient>
	<path class="st7" d="M118.9,76.1L23.7,56c-4.4-0.9-8.6,2.4-8.6,7v37c0,3.9,3.2,7.1,7.1,7.1h95.2c3.9,0,7.1-3.2,7.1-7.1V83.1
		C124.6,79.7,122.2,76.8,118.9,76.1z"/>
	<linearGradient id="SVGID_9_" gradientUnits="userSpaceOnUse" x1="73.773" y1="18.4707" x2="94.9318" y2="369.8907">
		<stop  offset="0" style="stop-color:#FFFFFF"/>
		<stop  offset="0.1006" style="stop-color:#FFFEF7"/>
		<stop  offset="0.2527" style="stop-color:#FEFDE3"/>
		<stop  offset="0.4375" style="stop-color:#FDFAC1"/>
		<stop  offset="0.6479" style="stop-color:#FCF591"/>
		<stop  offset="0.8768" style="stop-color:#FAF055"/>
		<stop  offset="1" style="stop-color:#F9ED32"/>
	</linearGradient>
	<path class="st8" d="M113.2,35.3L41.7,8.9c-4.7-1.7-9.6,1.7-9.6,6.7v20.3c0,3.2,2.1,5.9,5.1,6.8L108.7,64c4.6,1.4,9.2-2.1,9.2-6.8
		V42C117.9,39,116,36.3,113.2,35.3z"/>
</g>
</svg>
