<?xml version="1.0" encoding="utf-8"?>
<!-- Generator: Adobe Illustrator 23.0.2, SVG Export Plug-In . SVG Version: 6.00 Build 0)  -->
<svg version="1.1" id="Layer_1" xmlns="http://www.w3.org/2000/svg" xmlns:xlink="http://www.w3.org/1999/xlink" x="0px" y="0px"
	 viewBox="0 0 1674.4 961.5" style="enable-background:new 0 0 1674.4 961.5;" xml:space="preserve">
<style type="text/css">
	.st0{fill:url(#SVGID_1_);}
	.st1{fill:#F96250;}
	.st2{fill:url(#SVGID_2_);}
	.st3{fill:url(#SVGID_3_);}
	.st4{fill:#606060;}
	.st5{fill:url(#SVGID_4_);}
</style>
<linearGradient id="SVGID_1_" gradientUnits="userSpaceOnUse" x1="29.9729" y1="481.382" x2="1632.2747" y2="481.382">
	<stop  offset="0" style="stop-color:#FF664E"/>
	<stop  offset="1" style="stop-color:#FF806C"/>
</linearGradient>
<path class="st0" d="M1594.5,0c-2.1,0.3-4.2,0.6-6.3,0.9c-132.8,17.6-247.4,16.9-281.6,22.8L1267,3.1H411.9h-412v359.1h-1.8v267.1
	h-2.8v331.6h211.3h458l19.5,1.8c26.9-18.6,51.5-40.3,73.3-64.6c31.8-35.4,57.6-76.2,75.9-120.8c2.9-7.2,5.7-14.5,8.2-21.9
	c8.7-21.3,19.2-41.8,31.9-61.1c36.1-54.8,83.9-101.3,139.7-135.9c6.5-4,13.1-7.9,19.7-11.5c27.9-15.4,57.6-27.9,88.8-37.2l34.5-8.8
	c57.9-15.8,112.3-40.2,161.6-71.6c21.5-11.3,41.9-24.5,60.8-39.5c44.5-35.2,95.9-61,151-75c53.3-13.5,102.4-38,144.7-71.2V0H1594.5z
	"/>
<rect x="382.2" y="0.1" class="st1" width="873.6" height="359.4"/>
<linearGradient id="SVGID_2_" gradientUnits="userSpaceOnUse" x1="962.0389" y1="377.4534" x2="964.1937" y2="377.4534">
	<stop  offset="0" style="stop-color:#F94A35"/>
	<stop  offset="1" style="stop-color:#F96250"/>
</linearGradient>
<path class="st2" d="M964.2,378.1c-0.7-0.4-1.4-0.8-2.2-1.3v0.6C962.8,377.6,963.5,377.9,964.2,378.1z"/>
<linearGradient id="SVGID_3_" gradientUnits="userSpaceOnUse" x1="1316.7507" y1="-212.3837" x2="1714.8707" y2="-212.3837">
	<stop  offset="0" style="stop-color:#FF664E"/>
	<stop  offset="1" style="stop-color:#FF806C"/>
</linearGradient>
<rect x="1316.8" y="-262.1" class="st3" width="398.1" height="99.5"/>
<rect x="-283" y="1135.3" class="st4" width="2363" height="673.2"/>
<linearGradient id="SVGID_4_" gradientUnits="userSpaceOnUse" x1="59.0102" y1="450.6401" x2="1553.6301" y2="450.6401">
	<stop  offset="0" style="stop-color:#F94A35"/>
	<stop  offset="0.9654" style="stop-color:#F96250"/>
</linearGradient>
<path class="st5" d="M1401.6,0L-1.1-1.6L0,254.2v648.7c193-4.4,305.1-96.3,415.3-237.6l0.1,0.1C535.1,505.7,726,402.3,941,402.3
	c36.8,0,72.9,3,108,8.9c13.6,3.8,27.5,6.5,41.6,7.8c9.3,0.9,18.8,1.3,28.3,1.3c49.2,0,95.7-11.1,136.9-31.8l0,0
	c52.5-21.2,95.1-59.4,122-106.8c23.4-41.1,56.6-76.1,97.3-100c65.5-38.6,110-105.8,119.4-181.6H1401.6z"/>
</svg>
