<?xml version="1.0" encoding="utf-8"?>
<!-- Generator: Adobe Illustrator 23.0.2, SVG Export Plug-In . SVG Version: 6.00 Build 0)  -->
<svg version="1.1" id="Layer_1" xmlns="http://www.w3.org/2000/svg" xmlns:xlink="http://www.w3.org/1999/xlink" x="0px" y="0px"
	 viewBox="0 0 449.3 449.3" style="enable-background:new 0 0 449.3 449.3;" xml:space="preserve">
<style type="text/css">
	.st0{clip-path:url(#SVGID_2_);fill:#FFF4AA;}
	.st1{clip-path:url(#SVGID_2_);fill:#FFDB71;}
	.st2{clip-path:url(#SVGID_2_);fill:#FDBA4D;}
</style>
<g>
	<defs>
		<circle id="SVGID_1_" cx="224.7" cy="224.2" r="223.8"/>
	</defs>
	<clipPath id="SVGID_2_">
		<use xlink:href="#SVGID_1_"  style="overflow:visible;"/>
	</clipPath>
	<path class="st0" d="M398-19.5c102.3-13.7,207.2,35.6,259.4,132c67.5,124.5,21.8,279.1-102.5,347c-95.7,52.3-210.3,37.2-288.8-29.5
		c-37.6-31.9-83.3-52.6-131.8-61.6c-73.5-13.6-140.5-59-178.9-130C-112.1,114-66.4-40.6,57.9-108.5
		C177.6-173.9,326.7-133.9,398-19.5z"/>
	<path class="st1" d="M174.3,400.1c-40.6-13.7-74.8-45.5-89.9-89.9C60.8,240.7,95,163,162.2,133.3c58.6-25.9,124.7-9.4,164.8,35.4
		c17.6,19.7,41,32.9,66.3,40.5c42.7,12.8,79,45.3,94.6,91.4c23.6,69.6-10.6,147.2-77.8,176.9c-57,25.2-121.1,10.3-161.5-31.8
		C228.3,424.4,202.2,409.6,174.3,400.1z"/>
	<path class="st2" d="M305.8,307.3c63.4,13.5,120.3,55.1,150.8,119.1c47.7,100.2,10.2,222.8-85.5,279.2
		c-83.4,49.2-185.4,36.2-253.6-24c-29.9-26.4-67.3-42.1-106.6-49c-66.3-11.7-126.5-54-158.1-120.5
		c-47.7-100.2-10.2-222.8,85.4-279.2c81.2-47.9,179.9-36.8,248,19.2C220.6,280.4,262.2,298.1,305.8,307.3z"/>
</g>
</svg>
