<?xml version="1.0" encoding="utf-8"?>
<!-- Generator: Adobe Illustrator 23.0.2, SVG Export Plug-In . SVG Version: 6.00 Build 0)  -->
<svg version="1.1" id="Layer_1" xmlns="http://www.w3.org/2000/svg" xmlns:xlink="http://www.w3.org/1999/xlink" x="0px" y="0px"
	 viewBox="0 0 230.6 216.1" style="enable-background:new 0 0 230.6 216.1;" xml:space="preserve">
<style type="text/css">
	.st0{fill:none;stroke:#231F20;stroke-width:16;stroke-linejoin:round;stroke-miterlimit:10;}
	.st1{fill:#231F20;}
</style>
<g>
	<path class="st0" d="M188.7,10.2H42.5c-17.3,0-31.3,14-31.3,31.3v132.9c0,17.3,14,31.3,31.3,31.3h146.2c17.3,0,31.3-14,31.3-31.3
		V41.5C220,24.2,206,10.2,188.7,10.2z"/>
	<path class="st1" d="M141.6,122.4l-32.3,38.7c-1.4,1.7-4.1,1.7-5.5,0l-23.3-27.9c-1.4-1.7-4.1-1.7-5.5,0l-35.5,42.6
		c-2,2.3-0.3,5.9,2.8,5.9h49.9H121h67.9c3.1,0,4.7-3.6,2.8-5.9l-44.5-53.4C145.7,120.7,143,120.7,141.6,122.4z"/>
</g>
</svg>
